<svg id="svg" version="1.1" xmlns="http://www.w3.org/2000/svg" xmlns:xlink="http://www.w3.org/1999/xlink" width="400" height="400" viewBox="0, 0, 400,400"><g id="svgg"><path id="path0" d="M100.932 82.109 C 99.260 82.810,98.820 83.198,98.632 84.138 C 98.335 85.623,98.336 138.332,98.633 139.400 C 99.303 141.808,99.127 141.788,121.000 141.927 C 143.776 142.072,144.854 142.007,146.468 140.393 L 147.600 139.262 147.595 112.131 C 147.588 81.170,147.795 83.495,144.939 82.189 L 142.776 81.200 122.888 81.221 C 103.415 81.242,102.957 81.260,100.932 82.109 M256.400 81.459 C 254.186 82.180,252.841 82.999,252.640 83.745 C 252.242 85.230,252.373 139.077,252.778 140.141 C 253.446 141.898,255.549 142.045,278.139 141.917 L 298.785 141.800 300.093 140.492 L 301.400 139.185 301.521 112.292 C 301.658 81.877,301.822 83.557,298.552 82.019 C 296.882 81.234,258.648 80.726,256.400 81.459 M99.637 210.259 L 98.274 210.854 98.532 220.927 C 98.720 228.268,98.952 231.455,99.385 232.677 C 99.712 233.599,100.187 236.475,100.440 239.068 C 100.694 241.660,101.145 244.154,101.443 244.609 C 101.741 245.065,102.198 246.869,102.459 248.619 C 102.719 250.368,103.172 252.084,103.466 252.431 C 103.759 252.778,104.209 254.128,104.465 255.431 C 104.721 256.734,105.246 258.210,105.632 258.712 C 106.018 259.213,106.462 260.383,106.618 261.312 C 106.774 262.240,107.234 263.423,107.641 263.941 C 108.047 264.458,108.493 265.486,108.631 266.226 C 108.770 266.966,109.126 267.772,109.421 268.018 C 109.717 268.263,110.170 269.125,110.429 269.932 C 110.687 270.739,111.216 271.760,111.603 272.200 C 111.991 272.640,112.443 273.450,112.609 274.000 C 112.774 274.550,113.335 275.509,113.855 276.131 C 114.375 276.753,114.800 277.490,114.800 277.769 C 114.800 278.048,115.155 278.598,115.590 278.991 C 116.024 279.384,116.488 280.048,116.621 280.466 C 116.754 280.884,117.253 281.661,117.731 282.194 C 119.307 283.950,120.800 285.905,120.800 286.213 C 120.800 286.379,121.174 286.895,121.630 287.358 C 122.087 287.821,123.973 289.766,125.821 291.681 C 127.669 293.595,129.545 295.357,129.990 295.595 C 130.436 295.833,130.800 296.292,130.800 296.614 C 130.800 296.936,130.990 297.200,131.221 297.200 C 131.453 297.200,132.883 298.190,134.400 299.400 C 135.917 300.610,137.325 301.600,137.530 301.600 C 137.734 301.600,138.116 301.858,138.378 302.174 C 138.640 302.489,139.583 303.127,140.474 303.592 C 141.364 304.056,142.355 304.697,142.675 305.018 C 142.995 305.338,143.479 305.600,143.751 305.600 C 144.022 305.600,144.855 306.050,145.600 306.600 C 146.345 307.150,147.256 307.600,147.624 307.600 C 147.991 307.600,148.777 307.982,149.370 308.448 C 149.963 308.914,151.200 309.465,152.118 309.671 C 153.037 309.877,154.064 310.296,154.401 310.600 C 154.737 310.905,155.910 311.355,157.006 311.600 C 158.103 311.844,159.380 312.292,159.843 312.594 C 160.307 312.897,161.837 313.350,163.243 313.601 C 164.650 313.852,166.207 314.320,166.704 314.641 C 167.201 314.961,169.073 315.407,170.865 315.632 C 172.656 315.856,174.770 316.312,175.561 316.644 C 176.411 317.000,179.374 317.404,182.800 317.629 C 185.990 317.838,190.374 318.188,192.542 318.405 C 197.536 318.905,202.048 318.906,207.058 318.408 C 209.226 318.192,213.665 317.831,216.921 317.607 C 220.377 317.369,223.292 316.968,223.921 316.646 C 224.515 316.342,226.596 315.883,228.546 315.626 C 230.497 315.368,232.477 314.910,232.946 314.608 C 233.416 314.305,234.950 313.852,236.357 313.601 C 237.763 313.350,239.293 312.897,239.757 312.594 C 240.220 312.292,241.497 311.844,242.594 311.600 C 243.690 311.355,244.860 310.912,245.194 310.615 C 245.527 310.317,246.610 309.861,247.600 309.600 C 248.590 309.339,249.682 308.875,250.026 308.568 C 250.370 308.261,251.262 307.797,252.008 307.537 C 252.754 307.277,253.982 306.645,254.738 306.132 C 255.493 305.620,256.329 305.200,256.594 305.200 C 256.859 305.200,257.402 304.840,257.800 304.400 C 258.198 303.960,258.680 303.600,258.872 303.600 C 259.063 303.600,260.183 302.925,261.361 302.100 C 268.258 297.268,273.014 292.996,277.499 287.604 C 278.874 285.952,280.359 284.234,280.799 283.786 C 281.240 283.338,281.600 282.824,281.600 282.644 C 281.600 282.463,282.005 281.817,282.500 281.208 C 282.995 280.599,283.760 279.498,284.200 278.761 C 284.640 278.025,285.399 276.787,285.886 276.011 C 286.373 275.235,287.066 273.970,287.426 273.200 C 287.785 272.430,288.309 271.530,288.589 271.200 C 288.870 270.870,289.311 269.939,289.570 269.132 C 289.829 268.325,290.290 267.457,290.595 267.204 C 290.899 266.952,291.272 266.172,291.423 265.472 C 291.575 264.773,292.126 263.391,292.649 262.403 C 293.172 261.415,293.601 260.245,293.601 259.803 C 293.602 259.361,293.950 258.430,294.375 257.734 C 294.800 257.038,295.338 255.432,295.573 254.165 C 295.807 252.898,296.274 251.441,296.611 250.927 C 296.948 250.413,297.407 248.528,297.631 246.738 C 297.856 244.948,298.312 242.957,298.646 242.312 C 299.004 241.618,299.413 239.073,299.649 236.070 C 299.867 233.282,300.290 229.920,300.588 228.600 C 301.342 225.263,301.838 212.392,301.255 211.302 C 300.957 210.746,300.133 210.323,298.784 210.034 C 295.841 209.403,255.879 209.482,254.000 210.123 L 252.600 210.600 252.293 215.600 C 252.125 218.350,251.801 221.590,251.575 222.800 C 251.349 224.010,250.923 227.295,250.628 230.100 C 250.307 233.154,249.848 235.573,249.484 236.129 C 249.149 236.639,248.747 238.081,248.591 239.334 C 248.434 240.586,247.990 242.014,247.604 242.506 C 247.218 242.997,246.777 244.144,246.624 245.054 C 246.471 245.964,246.027 247.050,245.638 247.467 C 245.249 247.885,244.799 248.749,244.639 249.387 C 244.479 250.024,243.910 251.067,243.374 251.704 C 242.838 252.340,242.400 253.116,242.400 253.427 C 242.400 253.739,242.040 254.218,241.600 254.493 C 241.160 254.768,240.800 255.198,240.800 255.450 C 240.800 256.115,234.403 262.800,233.766 262.800 C 233.470 262.800,233.042 263.148,232.814 263.573 C 232.587 263.998,232.023 264.466,231.561 264.612 C 231.099 264.759,230.383 265.217,229.971 265.629 C 229.558 266.042,228.740 266.500,228.152 266.648 C 227.565 266.795,226.769 267.231,226.383 267.617 C 225.997 268.003,225.078 268.447,224.341 268.604 C 223.603 268.761,222.700 269.154,222.332 269.477 C 221.965 269.801,220.435 270.291,218.932 270.566 C 217.430 270.841,215.480 271.390,214.600 271.786 C 211.217 273.309,186.261 273.049,183.312 271.460 C 182.700 271.131,181.134 270.667,179.831 270.430 C 178.528 270.193,177.178 269.760,176.831 269.469 C 176.484 269.177,175.456 268.726,174.547 268.467 C 173.639 268.208,172.672 267.727,172.398 267.398 C 172.125 267.069,171.668 266.800,171.382 266.800 C 171.096 266.800,170.327 266.350,169.673 265.800 C 169.019 265.250,168.324 264.800,168.128 264.800 C 166.127 264.800,158.127 255.679,155.601 250.517 C 155.148 249.591,154.607 248.728,154.399 248.600 C 154.192 248.471,153.820 247.609,153.574 246.683 C 153.327 245.757,152.872 244.715,152.562 244.367 C 152.251 244.019,151.804 242.686,151.567 241.405 C 151.330 240.123,150.875 238.676,150.556 238.189 C 150.237 237.702,149.795 235.711,149.574 233.764 C 149.352 231.818,148.884 229.236,148.533 228.027 C 148.102 226.547,147.813 223.342,147.647 218.215 L 147.400 210.600 145.600 210.132 C 142.656 209.367,101.422 209.481,99.637 210.259 " stroke="none" fill="#261f26" fill-rule="evenodd"></path><path id="path1" d="M0.000 200.000 L 0.000 400.000 200.000 400.000 L 400.000 400.000 400.000 200.000 L 400.000 0.000 200.000 0.000 L 0.000 0.000 0.000 200.000 M146.165 80.600 C 146.675 81.150,147.301 81.600,147.556 81.600 C 148.686 81.600,148.800 84.380,148.800 111.995 L 148.800 140.339 147.764 141.569 C 147.195 142.246,146.430 142.806,146.064 142.813 C 145.699 142.820,145.051 143.090,144.624 143.413 C 143.964 143.912,140.706 144.000,122.956 144.000 L 102.066 144.000 100.033 142.979 C 98.915 142.417,98.000 141.920,98.000 141.873 C 98.000 141.827,97.640 140.804,97.200 139.600 C 96.320 137.193,95.912 85.149,96.769 84.619 C 96.972 84.494,97.249 83.886,97.385 83.269 C 97.531 82.606,98.308 81.627,99.288 80.874 L 100.945 79.600 123.092 79.600 L 145.238 79.600 146.165 80.600 M300.525 81.046 C 302.990 82.967,302.851 80.958,302.717 112.674 L 302.600 140.348 301.425 141.574 C 300.779 142.248,299.969 142.806,299.625 142.813 C 299.281 142.820,298.651 143.090,298.224 143.413 C 297.071 144.285,255.543 144.296,254.820 143.424 C 254.557 143.107,253.952 142.792,253.475 142.724 C 252.951 142.649,252.091 141.810,251.304 140.605 L 250.000 138.609 250.000 111.945 L 250.000 85.282 250.984 83.550 C 251.524 82.598,252.637 81.319,253.455 80.709 L 254.943 79.600 276.806 79.600 L 298.669 79.600 300.525 81.046 M147.518 208.921 C 148.563 209.923,148.717 210.394,148.957 213.321 C 149.104 215.125,149.476 218.580,149.782 221.000 C 150.088 223.420,150.463 227.380,150.615 229.800 C 150.801 232.767,151.082 234.417,151.478 234.868 C 151.801 235.235,152.263 236.855,152.505 238.468 C 152.747 240.080,153.257 241.810,153.639 242.312 C 154.021 242.813,154.453 243.928,154.598 244.789 C 154.744 245.650,155.109 246.559,155.411 246.809 C 155.712 247.059,156.174 247.925,156.437 248.732 C 156.701 249.539,157.340 250.709,157.858 251.331 C 158.376 251.953,158.800 252.718,158.800 253.031 C 158.800 253.344,158.956 253.600,159.147 253.600 C 159.338 253.600,159.947 254.275,160.501 255.100 C 162.516 258.102,168.402 263.600,169.600 263.600 C 169.816 263.600,170.218 263.960,170.493 264.400 C 170.768 264.840,171.284 265.200,171.640 265.200 C 171.997 265.200,172.924 265.631,173.701 266.159 C 174.478 266.686,175.718 267.244,176.457 267.398 C 177.196 267.552,178.408 268.027,179.150 268.455 C 179.893 268.883,181.806 269.398,183.403 269.600 C 184.999 269.803,187.091 270.290,188.052 270.684 C 190.603 271.729,208.136 271.754,210.666 270.717 C 211.583 270.341,213.772 269.853,215.531 269.632 C 217.425 269.395,219.274 268.899,220.065 268.417 C 220.799 267.969,221.760 267.600,222.200 267.596 C 222.640 267.592,223.450 267.326,224.000 267.005 C 224.550 266.684,225.573 266.149,226.274 265.816 C 227.555 265.208,229.751 263.842,231.587 262.514 C 233.400 261.201,239.525 254.866,239.791 254.028 C 239.936 253.573,240.219 253.200,240.422 253.200 C 240.624 253.200,241.057 252.559,241.384 251.777 C 241.711 250.994,242.344 249.889,242.789 249.323 C 243.235 248.756,243.600 247.981,243.600 247.600 C 243.600 247.219,243.931 246.479,244.336 245.954 C 244.742 245.429,245.288 244.128,245.552 243.063 C 245.815 241.997,246.290 240.729,246.608 240.244 C 246.926 239.759,247.384 237.938,247.626 236.198 C 247.868 234.457,248.347 232.489,248.691 231.824 C 249.169 230.900,249.404 228.393,249.686 221.207 C 250.269 206.352,247.756 207.613,276.778 207.606 L 299.357 207.600 300.886 208.659 C 301.727 209.242,302.529 210.175,302.669 210.732 C 303.175 212.749,302.466 232.061,301.800 234.400 C 301.455 235.610,300.938 238.580,300.650 241.000 C 300.363 243.420,299.852 245.940,299.515 246.600 C 299.178 247.260,298.773 248.880,298.615 250.200 C 298.457 251.520,298.003 253.140,297.606 253.800 C 297.209 254.460,296.757 255.810,296.600 256.800 C 296.443 257.790,295.974 259.161,295.558 259.847 C 295.141 260.533,294.799 261.343,294.798 261.647 C 294.798 261.951,294.258 263.280,293.600 264.600 C 292.942 265.920,292.402 267.306,292.402 267.680 C 292.401 268.054,292.158 268.504,291.862 268.680 C 291.566 268.856,291.002 269.855,290.608 270.900 C 290.214 271.945,289.743 272.800,289.562 272.800 C 289.380 272.800,289.010 273.540,288.739 274.444 C 288.468 275.349,287.921 276.292,287.523 276.541 C 287.126 276.789,286.800 277.221,286.800 277.501 C 286.800 278.178,283.630 282.800,283.165 282.800 C 282.964 282.800,282.800 283.045,282.800 283.345 C 282.800 284.626,274.452 293.966,270.059 297.600 C 269.394 298.150,268.301 299.095,267.629 299.700 C 266.957 300.305,266.136 300.800,265.804 300.800 C 265.472 300.800,265.200 300.978,265.200 301.195 C 265.200 301.588,263.002 303.195,260.732 304.463 C 260.079 304.828,259.242 305.391,258.872 305.716 C 258.503 306.040,257.777 306.434,257.261 306.592 C 256.744 306.750,255.983 307.217,255.571 307.629 C 255.158 308.042,254.321 308.502,253.710 308.651 C 253.100 308.800,252.187 309.242,251.681 309.633 C 251.176 310.025,250.186 310.471,249.481 310.624 C 248.777 310.778,247.790 311.226,247.288 311.619 C 246.787 312.012,245.617 312.462,244.688 312.618 C 243.760 312.774,242.592 313.223,242.092 313.615 C 241.593 314.006,240.264 314.454,239.139 314.608 C 238.014 314.763,236.533 315.218,235.847 315.619 C 235.161 316.020,233.430 316.468,232.000 316.614 C 230.570 316.761,228.680 317.211,227.800 317.614 C 226.843 318.053,224.432 318.508,221.800 318.747 C 219.380 318.967,216.140 319.440,214.600 319.799 C 210.612 320.728,186.062 320.507,183.000 319.514 C 181.900 319.157,178.965 318.690,176.478 318.475 C 173.551 318.222,171.717 317.876,171.278 317.494 C 170.905 317.170,169.340 316.782,167.800 316.632 C 166.260 316.482,164.439 316.028,163.753 315.624 C 163.067 315.220,161.586 314.763,160.461 314.608 C 159.336 314.454,158.007 314.006,157.508 313.615 C 157.008 313.223,155.840 312.774,154.912 312.618 C 153.983 312.462,152.813 312.023,152.312 311.643 C 151.810 311.262,150.625 310.727,149.679 310.453 C 148.732 310.179,147.858 309.695,147.736 309.378 C 147.614 309.060,147.165 308.800,146.737 308.800 C 145.743 308.800,143.600 307.700,143.600 307.190 C 143.600 306.975,143.254 306.800,142.831 306.800 C 142.408 306.800,141.553 306.388,140.931 305.884 C 140.309 305.381,139.300 304.752,138.689 304.488 C 138.078 304.223,137.473 303.735,137.346 303.403 C 137.219 303.072,136.888 302.800,136.612 302.800 C 135.951 302.800,132.273 300.039,129.552 297.500 C 128.903 296.895,128.211 296.400,128.013 296.400 C 127.816 296.400,127.540 296.040,127.400 295.600 C 127.260 295.160,126.884 294.800,126.564 294.800 C 126.245 294.800,125.778 294.350,125.527 293.800 C 125.277 293.250,124.837 292.800,124.550 292.800 C 124.263 292.800,123.846 292.460,123.624 292.045 C 123.402 291.630,122.451 290.442,121.510 289.405 C 120.570 288.368,119.440 287.124,119.000 286.639 C 118.560 286.154,117.486 284.687,116.613 283.379 C 115.740 282.071,114.822 280.819,114.572 280.599 C 114.321 280.378,113.733 279.445,113.264 278.526 C 112.795 277.606,112.229 276.741,112.006 276.604 C 111.783 276.466,111.600 276.074,111.600 275.734 C 111.600 275.394,111.150 274.581,110.600 273.927 C 110.050 273.273,109.600 272.427,109.600 272.047 C 109.600 271.667,109.150 270.745,108.600 270.000 C 108.050 269.255,107.600 268.397,107.600 268.094 C 107.600 267.790,107.168 266.790,106.639 265.871 C 106.111 264.952,105.547 263.570,105.387 262.800 C 105.227 262.030,104.759 260.971,104.348 260.446 C 103.937 259.921,103.600 259.039,103.600 258.485 C 103.600 257.931,103.173 256.560,102.652 255.439 C 102.130 254.317,101.581 252.435,101.432 251.256 C 101.283 250.077,100.894 248.705,100.568 248.208 C 100.242 247.710,99.798 245.705,99.581 243.752 C 99.364 241.798,98.899 239.480,98.547 238.600 C 98.113 237.513,97.728 234.176,97.347 228.200 C 97.039 223.360,96.682 217.870,96.553 216.000 C 96.354 213.102,96.443 212.317,97.153 210.684 C 98.544 207.482,97.420 207.609,123.474 207.711 L 146.348 207.800 147.518 208.921 " stroke="none" fill="#fbfbfb" fill-rule="evenodd"></path><path id="path2" d="M100.349 81.100 C 99.872 81.709,99.878 81.740,100.400 81.343 C 100.730 81.092,101.360 80.798,101.800 80.689 C 102.560 80.503,102.557 80.490,101.749 80.446 C 101.281 80.421,100.651 80.715,100.349 81.100 M302.189 111.600 C 302.189 126.450,302.239 132.525,302.300 125.100 C 302.361 117.675,302.361 105.525,302.300 98.100 C 302.239 90.675,302.189 96.750,302.189 111.600 M97.388 111.800 C 97.388 125.880,97.439 131.582,97.500 124.471 C 97.561 117.360,97.561 105.840,97.500 98.871 C 97.438 91.902,97.388 97.720,97.388 111.800 M250.988 111.800 C 250.988 125.880,251.039 131.582,251.100 124.471 C 251.161 117.360,251.161 105.840,251.100 98.871 C 251.038 91.902,250.988 97.720,250.988 111.800 M146.534 141.093 C 145.838 141.812,145.399 142.400,145.559 142.400 C 145.931 142.400,148.199 140.046,147.971 139.897 C 147.877 139.836,147.230 140.374,146.534 141.093 M98.400 140.957 C 98.400 141.414,100.979 142.797,101.800 142.781 C 102.276 142.771,101.990 142.547,101.096 142.228 C 100.269 141.933,99.324 141.469,98.996 141.197 C 98.668 140.925,98.400 140.817,98.400 140.957 M111.928 208.700 C 118.159 208.762,128.239 208.762,134.328 208.700 C 140.418 208.638,135.320 208.587,123.000 208.587 C 110.680 208.587,105.698 208.638,111.928 208.700 M265.500 208.700 C 271.715 208.762,281.885 208.762,288.100 208.700 C 294.315 208.638,289.230 208.587,276.800 208.587 C 264.370 208.587,259.285 208.638,265.500 208.700 M98.744 209.624 L 97.800 210.447 99.000 209.745 C 100.579 208.820,100.603 208.800,100.111 208.800 C 99.879 208.800,99.264 209.171,98.744 209.624 M251.827 210.370 C 251.444 210.794,251.215 211.469,251.319 211.870 C 251.493 212.545,251.511 212.542,251.554 211.831 C 251.579 211.409,251.898 210.734,252.262 210.331 C 252.626 209.929,252.834 209.600,252.724 209.600 C 252.614 209.600,252.210 209.947,251.827 210.370 M302.148 215.600 C 302.148 217.910,302.214 218.855,302.295 217.700 C 302.376 216.545,302.376 214.655,302.295 213.500 C 302.214 212.345,302.148 213.290,302.148 215.600 M97.309 214.400 C 97.309 215.390,97.387 215.795,97.482 215.300 C 97.578 214.805,97.578 213.995,97.482 213.500 C 97.387 213.005,97.309 213.410,97.309 214.400 M250.934 215.600 C 250.934 217.250,251.005 217.925,251.091 217.100 C 251.178 216.275,251.178 214.925,251.091 214.100 C 251.005 213.275,250.934 213.950,250.934 215.600 M148.524 219.800 C 148.526 221.120,148.601 221.612,148.690 220.893 C 148.779 220.174,148.777 219.094,148.686 218.493 C 148.595 217.892,148.522 218.480,148.524 219.800 M97.731 222.600 C 97.733 224.140,97.805 224.721,97.892 223.891 C 97.979 223.061,97.977 221.801,97.889 221.091 C 97.800 220.381,97.729 221.060,97.731 222.600 M250.501 222.200 C 250.505 223.080,250.587 223.393,250.683 222.895 C 250.779 222.398,250.775 221.678,250.675 221.295 C 250.575 220.913,250.496 221.320,250.501 222.200 M148.887 224.600 C 148.891 225.040,149.032 225.940,149.200 226.600 C 149.474 227.678,149.506 227.698,149.513 226.800 C 149.517 226.250,149.376 225.350,149.200 224.800 C 148.949 224.016,148.881 223.973,148.887 224.600 M250.101 226.600 C 250.105 227.480,250.187 227.793,250.283 227.295 C 250.379 226.798,250.375 226.078,250.275 225.695 C 250.175 225.313,250.096 225.720,250.101 226.600 M301.709 226.800 C 301.709 227.790,301.787 228.195,301.882 227.700 C 301.978 227.205,301.978 226.395,301.882 225.900 C 301.787 225.405,301.709 225.810,301.709 226.800 M98.109 230.400 C 98.109 231.390,98.187 231.795,98.282 231.300 C 98.378 230.805,98.378 229.995,98.282 229.500 C 98.187 229.005,98.109 229.410,98.109 230.400 M249.029 233.429 C 248.881 234.015,248.838 234.572,248.932 234.666 C 249.027 234.760,249.224 234.358,249.371 233.771 C 249.519 233.185,249.562 232.628,249.468 232.534 C 249.373 232.440,249.176 232.842,249.029 233.429 M242.552 251.100 C 242.185 251.705,241.517 252.740,241.066 253.400 C 240.476 254.265,240.433 254.449,240.911 254.062 C 241.276 253.765,242.018 252.730,242.559 251.762 C 243.633 249.839,243.628 249.324,242.552 251.100 M159.199 255.100 C 159.722 255.815,160.213 256.400,160.289 256.400 C 160.593 256.400,159.601 254.900,158.945 254.367 C 158.513 254.016,158.610 254.296,159.199 255.100 M160.400 256.925 C 160.400 256.994,160.985 257.579,161.700 258.225 L 163.000 259.400 161.825 258.100 C 160.730 256.888,160.400 256.616,160.400 256.925 M237.375 258.100 L 236.200 259.400 237.500 258.225 C 238.215 257.579,238.800 256.994,238.800 256.925 C 238.800 256.616,238.470 256.888,237.375 258.100 M105.124 260.200 C 105.326 260.640,105.592 261.270,105.714 261.600 C 105.907 262.118,105.941 262.115,105.968 261.576 C 105.986 261.234,105.720 260.604,105.378 260.176 C 104.766 259.412,104.762 259.413,105.124 260.200 M163.200 259.725 C 163.200 259.794,163.785 260.379,164.500 261.025 L 165.800 262.200 164.625 260.900 C 163.530 259.688,163.200 259.416,163.200 259.725 M233.200 262.057 L 231.000 264.089 233.099 262.408 C 234.939 260.934,235.913 259.973,235.524 260.013 C 235.456 260.020,234.410 260.940,233.200 262.057 M225.400 267.010 C 224.520 267.552,223.980 267.991,224.200 267.985 C 224.420 267.980,225.320 267.532,226.200 266.990 C 227.080 266.448,227.620 266.009,227.400 266.015 C 227.180 266.020,226.280 266.468,225.400 267.010 M108.015 267.400 C 108.020 267.620,108.468 268.520,109.010 269.400 C 109.552 270.280,109.991 270.820,109.985 270.600 C 109.980 270.380,109.532 269.480,108.990 268.600 C 108.448 267.720,108.009 267.180,108.015 267.400 M110.000 271.489 C 110.000 271.721,110.371 272.336,110.824 272.856 L 111.647 273.800 110.945 272.600 C 110.020 271.021,110.000 270.997,110.000 271.489 M196.917 272.297 C 198.411 272.374,200.751 272.374,202.117 272.296 C 203.482 272.218,202.260 272.155,199.400 272.155 C 196.540 272.156,195.422 272.220,196.917 272.297 M117.199 283.100 C 117.722 283.815,118.213 284.400,118.289 284.400 C 118.593 284.400,117.601 282.900,116.945 282.367 C 116.513 282.016,116.610 282.296,117.199 283.100 M121.583 288.700 C 122.326 289.635,123.006 290.400,123.094 290.400 C 123.377 290.400,121.663 288.149,120.935 287.564 C 120.548 287.254,120.840 287.765,121.583 288.700 M272.600 293.902 C 269.960 296.467,268.880 297.642,270.200 296.513 C 272.593 294.467,277.946 289.183,277.588 289.219 C 277.485 289.230,275.240 291.337,272.600 293.902 M128.000 295.288 C 128.000 295.366,128.855 296.133,129.900 296.992 C 130.945 297.851,131.440 298.140,131.000 297.634 C 130.222 296.739,128.000 295.002,128.000 295.288 M263.000 301.850 C 262.281 302.462,262.134 302.705,262.633 302.457 C 263.366 302.093,264.741 300.776,264.349 300.814 C 264.267 300.822,263.660 301.288,263.000 301.850 M141.386 305.178 C 141.654 305.611,146.033 308.100,146.212 307.921 C 146.285 307.849,145.180 307.124,143.758 306.311 C 142.336 305.498,141.269 304.988,141.386 305.178 M148.600 309.200 C 149.260 309.637,149.980 309.995,150.200 309.996 C 150.420 309.996,150.011 309.638,149.290 309.199 C 147.592 308.163,147.036 308.164,148.600 309.200 M225.000 317.200 C 224.496 317.417,224.422 317.544,224.800 317.544 C 225.130 317.544,225.760 317.389,226.200 317.200 C 226.704 316.983,226.778 316.856,226.400 316.856 C 226.070 316.856,225.440 317.011,225.000 317.200 M179.300 318.276 C 179.685 318.376,180.315 318.376,180.700 318.276 C 181.085 318.175,180.770 318.093,180.000 318.093 C 179.230 318.093,178.915 318.175,179.300 318.276 M218.900 318.276 C 219.285 318.376,219.915 318.376,220.300 318.276 C 220.685 318.175,220.370 318.093,219.600 318.093 C 218.830 318.093,218.515 318.175,218.900 318.276 M189.705 319.487 C 190.314 319.579,191.214 319.577,191.705 319.482 C 192.197 319.387,191.700 319.311,190.600 319.314 C 189.500 319.317,189.097 319.395,189.705 319.487 M208.105 319.487 C 208.714 319.579,209.614 319.577,210.105 319.482 C 210.597 319.387,210.100 319.311,209.000 319.314 C 207.900 319.317,207.497 319.395,208.105 319.487 M197.317 319.897 C 198.811 319.974,201.151 319.974,202.517 319.896 C 203.882 319.818,202.660 319.755,199.800 319.755 C 196.940 319.756,195.822 319.820,197.317 319.897 " stroke="none" fill="#949494" fill-rule="evenodd"></path><path id="path3" d="M99.288 80.874 C 98.308 81.627,97.531 82.606,97.385 83.269 C 97.249 83.886,96.972 84.494,96.769 84.619 C 95.912 85.149,96.320 137.193,97.200 139.600 C 97.640 140.804,98.000 141.827,98.000 141.873 C 98.000 141.920,98.915 142.417,100.033 142.979 L 102.066 144.000 122.956 144.000 C 140.706 144.000,143.964 143.912,144.624 143.413 C 145.051 143.090,145.699 142.820,146.064 142.813 C 146.430 142.806,147.195 142.246,147.764 141.569 L 148.800 140.339 148.800 111.995 C 148.800 84.380,148.686 81.600,147.556 81.600 C 147.301 81.600,146.675 81.150,146.165 80.600 L 145.238 79.600 123.092 79.600 L 100.945 79.600 99.288 80.874 M253.455 80.709 C 252.637 81.319,251.524 82.598,250.984 83.550 L 250.000 85.282 250.000 111.945 L 250.000 138.609 251.304 140.605 C 252.091 141.810,252.951 142.649,253.475 142.724 C 253.952 142.792,254.557 143.107,254.820 143.424 C 255.543 144.296,297.071 144.285,298.224 143.413 C 298.651 143.090,299.281 142.820,299.625 142.813 C 299.969 142.806,300.779 142.248,301.425 141.574 L 302.600 140.348 302.717 112.674 C 302.851 80.958,302.990 82.967,300.525 81.046 L 298.669 79.600 276.806 79.600 L 254.943 79.600 253.455 80.709 M146.308 81.625 C 148.555 83.277,148.450 81.648,148.317 112.692 L 148.200 139.985 146.893 141.292 L 145.585 142.600 123.392 142.710 C 98.851 142.831,99.529 142.896,98.107 140.293 C 97.455 139.101,97.391 136.983,97.283 113.280 C 97.152 84.256,97.192 83.686,99.495 81.706 L 101.000 80.412 122.821 80.406 L 144.642 80.400 146.308 81.625 M299.920 81.588 C 302.509 83.463,302.457 82.795,302.322 112.600 L 302.200 139.400 301.238 140.683 C 299.659 142.786,299.497 142.800,276.600 142.800 C 252.905 142.800,253.266 142.837,251.886 140.256 L 251.000 138.600 251.000 112.000 C 251.000 82.477,250.948 83.103,253.537 81.406 L 255.000 80.447 276.640 80.424 L 298.280 80.400 299.920 81.588 M99.293 208.194 C 97.179 209.121,96.261 211.738,96.553 216.000 C 96.682 217.870,97.039 223.360,97.347 228.200 C 97.728 234.176,98.113 237.513,98.547 238.600 C 98.899 239.480,99.364 241.798,99.581 243.752 C 99.798 245.705,100.242 247.710,100.568 248.208 C 100.894 248.705,101.283 250.077,101.432 251.256 C 101.581 252.435,102.130 254.317,102.652 255.439 C 103.173 256.560,103.600 257.931,103.600 258.485 C 103.600 259.039,103.937 259.921,104.348 260.446 C 104.759 260.971,105.227 262.030,105.387 262.800 C 105.547 263.570,106.111 264.952,106.639 265.871 C 107.168 266.790,107.600 267.790,107.600 268.094 C 107.600 268.397,108.050 269.255,108.600 270.000 C 109.150 270.745,109.600 271.667,109.600 272.047 C 109.600 272.427,110.050 273.273,110.600 273.927 C 111.150 274.581,111.600 275.394,111.600 275.734 C 111.600 276.074,111.783 276.466,112.006 276.604 C 112.229 276.741,112.795 277.606,113.264 278.526 C 113.733 279.445,114.321 280.378,114.572 280.599 C 114.822 280.819,115.740 282.071,116.613 283.379 C 117.486 284.687,118.560 286.154,119.000 286.639 C 119.440 287.124,120.570 288.368,121.510 289.405 C 122.451 290.442,123.402 291.630,123.624 292.045 C 123.846 292.460,124.263 292.800,124.550 292.800 C 124.837 292.800,125.277 293.250,125.527 293.800 C 125.778 294.350,126.245 294.800,126.564 294.800 C 126.884 294.800,127.260 295.160,127.400 295.600 C 127.540 296.040,127.816 296.400,128.013 296.400 C 128.211 296.400,128.903 296.895,129.552 297.500 C 132.273 300.039,135.951 302.800,136.612 302.800 C 136.888 302.800,137.219 303.072,137.346 303.403 C 137.473 303.735,138.078 304.223,138.689 304.488 C 139.300 304.752,140.309 305.381,140.931 305.884 C 141.553 306.388,142.408 306.800,142.831 306.800 C 143.254 306.800,143.600 306.975,143.600 307.190 C 143.600 307.700,145.743 308.800,146.737 308.800 C 147.165 308.800,147.614 309.060,147.736 309.378 C 147.858 309.695,148.732 310.179,149.679 310.453 C 150.625 310.727,151.810 311.262,152.312 311.643 C 152.813 312.023,153.983 312.462,154.912 312.618 C 155.840 312.774,157.008 313.223,157.508 313.615 C 158.007 314.006,159.336 314.454,160.461 314.608 C 161.586 314.763,163.067 315.220,163.753 315.624 C 164.439 316.028,166.260 316.482,167.800 316.632 C 169.340 316.782,170.905 317.170,171.278 317.494 C 171.717 317.876,173.551 318.222,176.478 318.475 C 178.965 318.690,181.900 319.157,183.000 319.514 C 186.062 320.507,210.612 320.728,214.600 319.799 C 216.140 319.440,219.380 318.967,221.800 318.747 C 224.432 318.508,226.843 318.053,227.800 317.614 C 228.680 317.211,230.570 316.761,232.000 316.614 C 233.430 316.468,235.161 316.020,235.847 315.619 C 236.533 315.218,238.014 314.763,239.139 314.608 C 240.264 314.454,241.593 314.006,242.092 313.615 C 242.592 313.223,243.760 312.774,244.688 312.618 C 245.617 312.462,246.787 312.012,247.288 311.619 C 247.790 311.226,248.777 310.778,249.481 310.624 C 250.186 310.471,251.176 310.025,251.681 309.633 C 252.187 309.242,253.100 308.800,253.710 308.651 C 254.321 308.502,255.158 308.042,255.571 307.629 C 255.983 307.217,256.744 306.750,257.261 306.592 C 257.777 306.434,258.503 306.040,258.872 305.716 C 259.242 305.391,260.079 304.828,260.732 304.463 C 263.002 303.195,265.200 301.588,265.200 301.195 C 265.200 300.978,265.472 300.800,265.804 300.800 C 266.136 300.800,266.957 300.305,267.629 299.700 C 268.301 299.095,269.394 298.150,270.059 297.600 C 274.452 293.966,282.800 284.626,282.800 283.345 C 282.800 283.045,282.964 282.800,283.165 282.800 C 283.630 282.800,286.800 278.178,286.800 277.501 C 286.800 277.221,287.126 276.789,287.523 276.541 C 287.921 276.292,288.468 275.349,288.739 274.444 C 289.010 273.540,289.380 272.800,289.562 272.800 C 289.743 272.800,290.214 271.945,290.608 270.900 C 291.002 269.855,291.566 268.856,291.862 268.680 C 292.158 268.504,292.401 268.054,292.402 267.680 C 292.402 267.306,292.942 265.920,293.600 264.600 C 294.258 263.280,294.798 261.951,294.798 261.647 C 294.799 261.343,295.141 260.533,295.558 259.847 C 295.974 259.161,296.443 257.790,296.600 256.800 C 296.757 255.810,297.209 254.460,297.606 253.800 C 298.003 253.140,298.457 251.520,298.615 250.200 C 298.773 248.880,299.178 247.260,299.515 246.600 C 299.852 245.940,300.363 243.420,300.650 241.000 C 300.938 238.580,301.455 235.610,301.800 234.400 C 302.466 232.061,303.175 212.749,302.669 210.732 C 302.529 210.175,301.727 209.242,300.886 208.659 L 299.357 207.600 276.778 207.606 C 247.756 207.613,250.269 206.352,249.686 221.207 C 249.404 228.393,249.169 230.900,248.691 231.824 C 248.347 232.489,247.868 234.457,247.626 236.198 C 247.384 237.938,246.926 239.759,246.608 240.244 C 246.290 240.729,245.815 241.997,245.552 243.063 C 245.288 244.128,244.742 245.429,244.336 245.954 C 243.931 246.479,243.600 247.219,243.600 247.600 C 243.600 247.981,243.235 248.756,242.789 249.323 C 242.344 249.889,241.711 250.994,241.384 251.777 C 241.057 252.559,240.624 253.200,240.422 253.200 C 240.219 253.200,239.936 253.573,239.791 254.028 C 239.525 254.866,233.400 261.201,231.587 262.514 C 229.751 263.842,227.555 265.208,226.274 265.816 C 225.573 266.149,224.550 266.684,224.000 267.005 C 223.450 267.326,222.640 267.592,222.200 267.596 C 221.760 267.600,220.799 267.969,220.065 268.417 C 219.274 268.899,217.425 269.395,215.531 269.632 C 213.772 269.853,211.583 270.341,210.666 270.717 C 208.136 271.754,190.603 271.729,188.052 270.684 C 187.091 270.290,184.999 269.803,183.403 269.600 C 181.806 269.398,179.893 268.883,179.150 268.455 C 178.408 268.027,177.196 267.552,176.457 267.398 C 175.718 267.244,174.478 266.686,173.701 266.159 C 172.924 265.631,171.997 265.200,171.640 265.200 C 171.284 265.200,170.768 264.840,170.493 264.400 C 170.218 263.960,169.816 263.600,169.600 263.600 C 168.402 263.600,162.516 258.102,160.501 255.100 C 159.947 254.275,159.338 253.600,159.147 253.600 C 158.956 253.600,158.800 253.344,158.800 253.031 C 158.800 252.718,158.376 251.953,157.858 251.331 C 157.340 250.709,156.701 249.539,156.437 248.732 C 156.174 247.925,155.712 247.059,155.411 246.809 C 155.109 246.559,154.744 245.650,154.598 244.789 C 154.453 243.928,154.021 242.813,153.639 242.312 C 153.257 241.810,152.747 240.080,152.505 238.468 C 152.263 236.855,151.801 235.235,151.478 234.868 C 151.082 234.417,150.801 232.767,150.615 229.800 C 150.463 227.380,150.088 223.420,149.782 221.000 C 149.476 218.580,149.104 215.125,148.957 213.321 C 148.717 210.394,148.563 209.923,147.518 208.921 L 146.348 207.800 123.474 207.711 C 104.350 207.636,100.386 207.715,99.293 208.194 M146.416 209.208 C 148.337 210.188,148.001 208.936,148.616 217.400 C 149.258 226.242,150.529 235.066,151.583 238.000 C 152.018 239.210,152.380 240.493,152.387 240.852 C 152.413 242.149,156.337 250.523,158.051 252.940 C 158.699 253.853,159.650 255.230,160.164 256.000 C 163.940 261.655,174.587 268.534,181.817 269.988 C 183.128 270.252,185.190 270.767,186.400 271.134 C 190.077 272.247,209.539 272.106,213.600 270.936 C 215.250 270.460,217.295 269.954,218.143 269.810 C 221.988 269.157,228.948 265.501,233.395 261.798 C 237.245 258.592,239.061 256.468,242.799 250.800 C 247.245 244.059,249.863 233.029,250.764 217.250 L 251.115 211.100 252.365 209.850 L 253.615 208.600 276.245 208.490 C 305.147 208.350,302.646 207.261,302.203 219.800 C 302.055 223.980,301.779 228.480,301.590 229.800 C 301.401 231.120,300.965 234.180,300.623 236.600 C 299.880 241.846,298.261 249.101,296.949 253.067 C 296.427 254.644,295.994 256.174,295.986 256.467 C 295.979 256.760,295.625 257.720,295.200 258.600 C 294.775 259.480,294.421 260.350,294.414 260.533 C 294.376 261.452,290.291 270.212,288.082 274.110 C 281.089 286.450,271.901 296.448,261.199 303.363 C 260.210 304.002,258.928 304.845,258.351 305.237 C 256.834 306.266,251.786 308.800,251.253 308.800 C 251.004 308.800,250.800 308.966,250.800 309.168 C 250.800 309.370,249.928 309.825,248.862 310.179 C 247.796 310.534,246.228 311.178,245.377 311.612 C 244.527 312.045,243.589 312.400,243.293 312.400 C 242.998 312.400,242.001 312.737,241.078 313.149 C 240.155 313.561,238.410 314.125,237.200 314.402 C 235.990 314.678,234.820 315.046,234.600 315.218 C 234.380 315.390,232.703 315.816,230.872 316.163 C 229.042 316.510,226.612 317.055,225.472 317.375 C 219.877 318.945,201.696 320.252,193.610 319.667 C 185.818 319.102,174.928 317.803,173.574 317.276 C 173.010 317.056,170.942 316.575,168.978 316.207 C 167.014 315.839,165.226 315.396,165.004 315.221 C 164.782 315.047,163.610 314.678,162.400 314.402 C 161.190 314.125,159.445 313.561,158.522 313.149 C 157.599 312.737,156.639 312.400,156.389 312.400 C 155.254 312.400,144.863 307.508,141.621 305.447 C 125.466 295.178,115.244 283.318,107.277 265.600 C 105.877 262.488,104.117 257.852,103.820 256.496 C 103.663 255.779,103.289 254.699,102.989 254.096 C 102.690 253.493,102.188 251.830,101.875 250.400 C 101.561 248.970,101.017 246.630,100.664 245.200 C 98.106 234.814,96.405 213.167,97.935 210.467 C 99.073 208.458,99.389 208.432,122.916 208.416 C 144.132 208.400,144.882 208.426,146.416 209.208 " stroke="none" fill="#abaaab" fill-rule="evenodd"></path><path id="path4" d="M101.800 80.747 C 97.498 82.257,97.816 79.932,97.689 110.836 C 97.567 140.784,97.533 140.334,100.000 141.780 C 102.028 142.968,143.913 143.073,145.712 141.894 C 148.338 140.174,148.200 141.835,148.200 112.018 C 148.200 82.489,148.263 83.402,146.105 81.752 L 144.600 80.600 123.600 80.533 C 112.050 80.496,102.240 80.592,101.800 80.747 M255.517 80.788 C 251.043 82.166,251.119 81.589,251.273 113.000 C 251.414 141.892,251.316 140.877,254.081 142.044 C 256.429 143.034,298.234 142.848,299.720 141.841 C 302.078 140.243,302.000 141.267,302.000 111.846 C 302.000 82.831,302.049 83.488,299.756 81.739 L 298.263 80.600 277.432 80.527 C 265.974 80.488,256.112 80.605,255.517 80.788 M144.939 82.189 C 147.795 83.495,147.588 81.170,147.595 112.131 L 147.600 139.262 146.468 140.393 C 144.854 142.007,143.776 142.072,121.000 141.927 C 99.127 141.788,99.303 141.808,98.633 139.400 C 98.336 138.332,98.335 85.623,98.632 84.138 C 99.181 81.393,100.415 81.245,122.888 81.221 L 142.776 81.200 144.939 82.189 M298.552 82.019 C 301.822 83.557,301.658 81.877,301.521 112.292 L 301.400 139.185 300.093 140.492 L 298.785 141.800 278.139 141.917 C 255.549 142.045,253.446 141.898,252.778 140.141 C 252.373 139.077,252.242 85.230,252.640 83.745 C 252.841 82.999,254.186 82.180,256.400 81.459 C 258.648 80.726,296.882 81.234,298.552 82.019 M99.338 209.572 C 97.438 210.731,97.106 218.348,98.415 230.800 C 99.428 240.447,103.458 257.251,105.462 260.189 C 105.758 260.623,106.000 261.227,106.000 261.532 C 106.000 262.629,112.269 275.530,113.435 276.831 C 113.746 277.179,114.000 277.586,114.000 277.736 C 114.000 277.886,114.765 279.103,115.700 280.440 C 116.635 281.777,117.662 283.260,117.982 283.735 C 124.242 293.040,137.551 303.818,149.400 309.178 C 150.940 309.874,152.866 310.794,153.679 311.222 C 154.493 311.650,155.434 312.000,155.771 312.000 C 156.108 312.000,157.513 312.430,158.892 312.955 C 162.412 314.296,167.868 315.877,170.000 316.173 C 170.990 316.310,172.610 316.685,173.600 317.006 C 183.316 320.155,214.149 320.048,226.564 316.822 C 228.304 316.370,230.093 316.000,230.540 316.000 C 231.503 316.000,237.171 314.303,240.708 312.955 C 242.087 312.430,243.418 312.000,243.664 312.000 C 244.414 312.000,255.902 306.443,258.826 304.666 C 268.583 298.736,278.286 289.218,284.582 279.400 C 285.429 278.080,286.544 276.360,287.061 275.578 C 287.577 274.797,288.000 273.966,288.000 273.732 C 288.000 273.499,288.331 272.879,288.735 272.354 C 292.037 268.068,299.995 244.628,300.001 239.168 C 300.002 238.635,300.376 236.040,300.833 233.400 C 301.421 229.997,301.728 226.027,301.885 219.761 L 302.107 210.922 300.703 209.852 L 299.299 208.781 276.295 208.890 L 253.290 209.000 252.464 210.000 C 251.501 211.167,251.449 211.517,250.592 222.729 C 250.233 227.420,249.684 232.190,249.373 233.329 C 249.061 234.468,248.530 236.647,248.193 238.170 C 247.857 239.694,247.424 241.134,247.232 241.370 C 247.039 241.607,246.612 242.700,246.281 243.800 C 245.204 247.390,241.568 253.792,239.000 256.621 C 238.780 256.863,238.057 257.678,237.393 258.431 C 232.559 263.913,224.353 268.687,217.061 270.259 C 215.555 270.584,213.845 271.033,213.261 271.257 C 209.238 272.802,191.004 272.510,183.800 270.786 C 169.886 267.455,157.682 257.193,153.983 245.713 C 153.715 244.881,153.351 244.016,153.174 243.791 C 152.831 243.354,151.546 238.938,150.617 235.000 C 149.549 230.473,148.711 223.794,148.384 217.200 C 148.204 213.570,148.043 210.552,148.028 210.494 C 147.516 208.563,102.395 207.709,99.338 209.572 M145.600 210.132 L 147.400 210.600 147.647 218.215 C 147.813 223.342,148.102 226.547,148.533 228.027 C 148.884 229.236,149.352 231.818,149.574 233.764 C 149.795 235.711,150.237 237.702,150.556 238.189 C 150.875 238.676,151.330 240.123,151.567 241.405 C 151.804 242.686,152.251 244.019,152.562 244.367 C 152.872 244.715,153.327 245.757,153.574 246.683 C 153.820 247.609,154.192 248.471,154.399 248.600 C 154.607 248.728,155.148 249.591,155.601 250.517 C 158.127 255.679,166.127 264.800,168.128 264.800 C 168.324 264.800,169.019 265.250,169.673 265.800 C 170.327 266.350,171.096 266.800,171.382 266.800 C 171.668 266.800,172.125 267.069,172.398 267.398 C 172.672 267.727,173.639 268.208,174.547 268.467 C 175.456 268.726,176.484 269.177,176.831 269.469 C 177.178 269.760,178.528 270.193,179.831 270.430 C 181.134 270.667,182.700 271.131,183.312 271.460 C 186.261 273.049,211.217 273.309,214.600 271.786 C 215.480 271.390,217.430 270.841,218.932 270.566 C 220.435 270.291,221.965 269.801,222.332 269.477 C 222.700 269.154,223.603 268.761,224.341 268.604 C 225.078 268.447,225.997 268.003,226.383 267.617 C 226.769 267.231,227.565 266.795,228.152 266.648 C 228.740 266.500,229.558 266.042,229.971 265.629 C 230.383 265.217,231.099 264.759,231.561 264.612 C 232.023 264.466,232.587 263.998,232.814 263.573 C 233.042 263.148,233.470 262.800,233.766 262.800 C 234.403 262.800,240.800 256.115,240.800 255.450 C 240.800 255.198,241.160 254.768,241.600 254.493 C 242.040 254.218,242.400 253.739,242.400 253.427 C 242.400 253.116,242.838 252.340,243.374 251.704 C 243.910 251.067,244.479 250.024,244.639 249.387 C 244.799 248.749,245.249 247.885,245.638 247.467 C 246.027 247.050,246.471 245.964,246.624 245.054 C 246.777 244.144,247.218 242.997,247.604 242.506 C 247.990 242.014,248.434 240.586,248.591 239.334 C 248.747 238.081,249.149 236.639,249.484 236.129 C 249.848 235.573,250.307 233.154,250.628 230.100 C 250.923 227.295,251.349 224.010,251.575 222.800 C 251.801 221.590,252.125 218.350,252.293 215.600 L 252.600 210.600 254.000 210.123 C 255.879 209.482,295.841 209.403,298.784 210.034 C 300.133 210.323,300.957 210.746,301.255 211.302 C 301.838 212.392,301.342 225.263,300.588 228.600 C 300.290 229.920,299.867 233.282,299.649 236.070 C 299.413 239.073,299.004 241.618,298.646 242.312 C 298.312 242.957,297.856 244.948,297.631 246.738 C 297.407 248.528,296.948 250.413,296.611 250.927 C 296.274 251.441,295.807 252.898,295.573 254.165 C 295.338 255.432,294.800 257.038,294.375 257.734 C 293.950 258.430,293.602 259.361,293.601 259.803 C 293.601 260.245,293.172 261.415,292.649 262.403 C 292.126 263.391,291.575 264.773,291.423 265.472 C 291.272 266.172,290.899 266.952,290.595 267.204 C 290.290 267.457,289.829 268.325,289.570 269.132 C 289.311 269.939,288.870 270.870,288.589 271.200 C 288.309 271.530,287.785 272.430,287.426 273.200 C 287.066 273.970,286.373 275.235,285.886 276.011 C 285.399 276.787,284.640 278.025,284.200 278.761 C 283.760 279.498,282.995 280.599,282.500 281.208 C 282.005 281.817,281.600 282.463,281.600 282.644 C 281.600 282.824,281.240 283.338,280.799 283.786 C 280.359 284.234,278.874 285.952,277.499 287.604 C 273.014 292.996,268.258 297.268,261.361 302.100 C 260.183 302.925,259.063 303.600,258.872 303.600 C 258.680 303.600,258.198 303.960,257.800 304.400 C 257.402 304.840,256.859 305.200,256.594 305.200 C 256.329 305.200,255.493 305.620,254.738 306.132 C 253.982 306.645,252.754 307.277,252.008 307.537 C 251.262 307.797,250.370 308.261,250.026 308.568 C 249.682 308.875,248.590 309.339,247.600 309.600 C 246.610 309.861,245.527 310.317,245.194 310.615 C 244.860 310.912,243.690 311.355,242.594 311.600 C 241.497 311.844,240.220 312.292,239.757 312.594 C 239.293 312.897,237.763 313.350,236.357 313.601 C 234.950 313.852,233.416 314.305,232.946 314.608 C 232.477 314.910,230.497 315.368,228.546 315.626 C 226.596 315.883,224.515 316.342,223.921 316.646 C 223.292 316.968,220.377 317.369,216.921 317.607 C 213.665 317.831,209.226 318.192,207.058 318.408 C 202.048 318.906,197.536 318.905,192.542 318.405 C 190.374 318.188,185.990 317.838,182.800 317.629 C 179.374 317.404,176.411 317.000,175.561 316.644 C 174.770 316.312,172.656 315.856,170.865 315.632 C 169.073 315.407,167.201 314.961,166.704 314.641 C 166.207 314.320,164.650 313.852,163.243 313.601 C 161.837 313.350,160.307 312.897,159.843 312.594 C 159.380 312.292,158.103 311.844,157.006 311.600 C 155.910 311.355,154.737 310.905,154.401 310.600 C 154.064 310.296,153.037 309.877,152.118 309.671 C 151.200 309.465,149.963 308.914,149.370 308.448 C 148.777 307.982,147.991 307.600,147.624 307.600 C 147.256 307.600,146.345 307.150,145.600 306.600 C 144.855 306.050,144.022 305.600,143.751 305.600 C 143.479 305.600,142.995 305.338,142.675 305.018 C 142.355 304.697,141.364 304.056,140.474 303.592 C 139.583 303.127,138.640 302.489,138.378 302.174 C 138.116 301.858,137.734 301.600,137.530 301.600 C 137.325 301.600,135.917 300.610,134.400 299.400 C 132.883 298.190,131.453 297.200,131.221 297.200 C 130.990 297.200,130.800 296.936,130.800 296.614 C 130.800 296.292,130.436 295.833,129.990 295.595 C 129.545 295.357,127.669 293.595,125.821 291.681 C 123.973 289.766,122.087 287.821,121.630 287.358 C 121.174 286.895,120.800 286.379,120.800 286.213 C 120.800 285.905,119.307 283.950,117.731 282.194 C 117.253 281.661,116.754 280.884,116.621 280.466 C 116.488 280.048,116.024 279.384,115.590 278.991 C 115.155 278.598,114.800 278.048,114.800 277.769 C 114.800 277.490,114.375 276.753,113.855 276.131 C 113.335 275.509,112.774 274.550,112.609 274.000 C 112.443 273.450,111.991 272.640,111.603 272.200 C 111.216 271.760,110.687 270.739,110.429 269.932 C 110.170 269.125,109.717 268.263,109.421 268.018 C 109.126 267.772,108.770 266.966,108.631 266.226 C 108.493 265.486,108.047 264.458,107.641 263.941 C 107.234 263.423,106.774 262.240,106.618 261.312 C 106.462 260.383,106.018 259.213,105.632 258.712 C 105.246 258.210,104.721 256.734,104.465 255.431 C 104.209 254.128,103.759 252.778,103.466 252.431 C 103.172 252.084,102.719 250.368,102.459 248.619 C 102.198 246.869,101.741 245.065,101.443 244.609 C 101.145 244.154,100.694 241.660,100.440 239.068 C 100.187 236.475,99.712 233.599,99.385 232.677 C 98.952 231.455,98.720 228.268,98.532 220.927 L 98.274 210.854 99.637 210.259 C 101.422 209.481,142.656 209.367,145.600 210.132 " stroke="none" fill="#848484" fill-rule="evenodd"></path></g></svg>